<?xml version="1.0" encoding="UTF-8"?>
<svg id="_图层_2" data-name="图层 2" xmlns="http://www.w3.org/2000/svg" viewBox="0 0 42.37 42.01">
  <defs>
    <style>
      .cls-1, .cls-2, .cls-3 {
        fill: #231815;
      }

      .cls-1, .cls-4 {
        opacity: .6;
      }

      .cls-2 {
        opacity: .7;
      }

      .cls-5 {
        fill: #f7f8f8;
      }

      .cls-6 {
        opacity: .44;
      }
    </style>
  </defs>
  <g id="_图层_1-2" data-name="图层 1">
    <g>
      <g class="cls-6">
        <polygon class="cls-3" points="42.37 31.68 21.19 42.01 21.19 20.83 42.37 10.5 42.37 31.68"/>
        <polygon class="cls-3" points="0 31.68 21.19 42.01 21.19 20.83 0 10.5 0 31.68"/>
      </g>
      <g class="cls-4">
        <polygon class="cls-2" points="0 10.33 21.19 0 21.19 21.19 0 31.52 0 10.33"/>
        <polygon class="cls-1" points="42.37 10.33 21.19 0 21.19 21.19 42.37 31.52 42.37 10.33"/>
      </g>
      <polygon class="cls-5" points="7.73 35.36 13.46 38.16 13.46 17.15 7.73 14.35 7.73 35.36"/>
      <path class="cls-5" d="M34.72,25.04c.74-1.11,1.1-2.27,1.1-3.51v-3.73c0-1.23-.37-2.04-1.1-2.43-.74-.39-1.99-.15-3.74.7l-4.02,1.96-3.86,1.88-1.91.93v21.17l5.77-2.81v-6.84l2.28-1.11c.28-.14.49-.18.63-.12.13.06.2.21.2.45v6.11l5.77-2.81v-5.52c0-1.23-.37-2.04-1.1-2.43-.51-.27-1.28-.22-2.28.11l.55-.27c.73-.54,1.32-1.11,1.73-1.73ZM26.96,22.15l2.28-1.11c.28-.14.49-.18.63-.12.13.06.2.21.2.45v4.15c0,.24-.07.46-.2.64s-.34.35-.63.49l-2.28,1.11v-5.61Z"/>
    </g>
  </g>
</svg>